<mxfile host="app.diagrams.net" agent="Mozilla/5.0 (Windows NT 10.0; Win64; x64) AppleWebKit/537.36 (KHTML, like Gecko) Chrome/133.0.0.0 Safari/537.36" version="26.1.0">
  <diagram name="Page-1" id="vbLsa9jJDrGU1CUc_KGF">
    <mxGraphModel dx="3120" dy="3316" grid="1" gridSize="10" guides="1" tooltips="1" connect="1" arrows="1" fold="1" page="1" pageScale="1" pageWidth="1000" pageHeight="1000" math="0" shadow="0">
      <root>
        <mxCell id="0" />
        <mxCell id="1" parent="0" />
        <mxCell id="ZP4OgEjjYW04ABh2yi0A-1" value="CredentialsDatabase" style="swimlane;fontStyle=1;align=center;verticalAlign=top;childLayout=stackLayout;horizontal=1;startSize=26;horizontalStack=0;resizeParent=1;resizeParentMax=0;resizeLast=0;collapsible=1;marginBottom=0;whiteSpace=wrap;html=1;" vertex="1" parent="1">
          <mxGeometry x="-74" y="-1099" width="333" height="287" as="geometry" />
        </mxCell>
        <mxCell id="ZP4OgEjjYW04ABh2yi0A-2" value="&lt;div style=&quot;line-height: 200%;&quot;&gt;+ playerCredentials: HashMap&amp;lt;String, Player&amp;gt;&lt;span style=&quot;background-color: transparent; color: light-dark(rgb(0, 0, 0), rgb(255, 255, 255));&quot;&gt;&amp;nbsp;&amp;nbsp;&lt;/span&gt;&lt;/div&gt;" style="text;strokeColor=none;fillColor=none;align=left;verticalAlign=top;spacingLeft=4;spacingRight=4;overflow=hidden;rotatable=0;points=[[0,0.5],[1,0.5]];portConstraint=eastwest;whiteSpace=wrap;html=1;" vertex="1" parent="ZP4OgEjjYW04ABh2yi0A-1">
          <mxGeometry y="26" width="333" height="26" as="geometry" />
        </mxCell>
        <mxCell id="ZP4OgEjjYW04ABh2yi0A-3" value="" style="line;strokeWidth=1;fillColor=none;align=left;verticalAlign=middle;spacingTop=-1;spacingLeft=3;spacingRight=3;rotatable=0;labelPosition=right;points=[];portConstraint=eastwest;strokeColor=inherit;" vertex="1" parent="ZP4OgEjjYW04ABh2yi0A-1">
          <mxGeometry y="52" width="333" height="8" as="geometry" />
        </mxCell>
        <mxCell id="ZP4OgEjjYW04ABh2yi0A-4" value="&lt;div style=&quot;line-height: 200%;&quot;&gt;+ CredentialsDatabase()&lt;div&gt;+ usernameLookup(username: String): boolean&lt;/div&gt;&lt;div&gt;+ addNewPlayer(username: String, email: String, password: String, ranking: Rank, connect4Stats: Connect4Stats, ticTacToeStats: TicTacToeStats, checkersStats: CheckersStats): boolean&lt;/div&gt;&lt;div&gt;+ deleteExistingPlayer(username: String): boolean&lt;/div&gt;&lt;div&gt;+ findPlayerByUsername(username: String): Player&lt;/div&gt;&lt;div&gt;+ saveDatabase(String filename): void&lt;/div&gt;&lt;div&gt;+ loadDatabase(String filename): void&lt;/div&gt;&lt;div&gt;&lt;div&gt;&lt;/div&gt;&lt;/div&gt;&lt;/div&gt;" style="text;strokeColor=none;fillColor=none;align=left;verticalAlign=top;spacingLeft=4;spacingRight=4;overflow=hidden;rotatable=0;points=[[0,0.5],[1,0.5]];portConstraint=eastwest;whiteSpace=wrap;html=1;spacingTop=0;spacingBottom=0;" vertex="1" parent="ZP4OgEjjYW04ABh2yi0A-1">
          <mxGeometry y="60" width="333" height="227" as="geometry" />
        </mxCell>
        <mxCell id="ZP4OgEjjYW04ABh2yi0A-5" value="Player" style="swimlane;fontStyle=1;align=center;verticalAlign=top;childLayout=stackLayout;horizontal=1;startSize=26;horizontalStack=0;resizeParent=1;resizeParentMax=0;resizeLast=0;collapsible=1;marginBottom=0;whiteSpace=wrap;html=1;" vertex="1" parent="1">
          <mxGeometry x="1195" y="-824" width="348" height="475" as="geometry" />
        </mxCell>
        <mxCell id="ZP4OgEjjYW04ABh2yi0A-6" value="&lt;div style=&quot;line-height: 200%;&quot;&gt;- username: String&lt;/div&gt;&lt;div style=&quot;line-height: 200%;&quot;&gt;&lt;span style=&quot;background-color: transparent; color: light-dark(rgb(0, 0, 0), rgb(255, 255, 255));&quot;&gt;- email: String&lt;/span&gt;&lt;/div&gt;&lt;div style=&quot;line-height: 200%;&quot;&gt;&lt;span style=&quot;background-color: transparent; color: light-dark(rgb(0, 0, 0), rgb(255, 255, 255));&quot;&gt;- password: String&lt;/span&gt;&lt;/div&gt;&lt;div style=&quot;line-height: 200%;&quot;&gt;&lt;span style=&quot;background-color: transparent; color: light-dark(rgb(0, 0, 0), rgb(255, 255, 255));&quot;&gt;- ranking: Rank&amp;nbsp;&lt;/span&gt;&lt;/div&gt;&lt;div style=&quot;line-height: 200%;&quot;&gt;&lt;span style=&quot;background-color: transparent; color: light-dark(rgb(0, 0, 0), rgb(255, 255, 255));&quot;&gt;- connect4Stats: Connect4Stats&lt;/span&gt;&lt;/div&gt;&lt;div style=&quot;line-height: 200%;&quot;&gt;&lt;span style=&quot;background-color: transparent; color: light-dark(rgb(0, 0, 0), rgb(255, 255, 255));&quot;&gt;- ticTacToeStats: TicTacToeStats&lt;/span&gt;&lt;/div&gt;&lt;div style=&quot;line-height: 200%;&quot;&gt;&lt;span style=&quot;background-color: transparent; color: light-dark(rgb(0, 0, 0), rgb(255, 255, 255));&quot;&gt;- checkerStats: CheckerStats&lt;/span&gt;&lt;/div&gt;&lt;div style=&quot;line-height: 200%;&quot;&gt;&lt;span style=&quot;background-color: transparent; color: light-dark(rgb(0, 0, 0), rgb(255, 255, 255));&quot;&gt;&lt;br&gt;&lt;/span&gt;&lt;/div&gt;&lt;div style=&quot;line-height: 200%;&quot;&gt;&lt;span style=&quot;background-color: transparent; color: light-dark(rgb(0, 0, 0), rgb(255, 255, 255));&quot;&gt;&amp;nbsp;&amp;nbsp;&lt;/span&gt;&lt;/div&gt;" style="text;strokeColor=none;fillColor=none;align=left;verticalAlign=top;spacingLeft=4;spacingRight=4;overflow=hidden;rotatable=0;points=[[0,0.5],[1,0.5]];portConstraint=eastwest;whiteSpace=wrap;html=1;" vertex="1" parent="ZP4OgEjjYW04ABh2yi0A-5">
          <mxGeometry y="26" width="348" height="188" as="geometry" />
        </mxCell>
        <mxCell id="ZP4OgEjjYW04ABh2yi0A-7" value="" style="line;strokeWidth=1;fillColor=none;align=left;verticalAlign=middle;spacingTop=-1;spacingLeft=3;spacingRight=3;rotatable=0;labelPosition=right;points=[];portConstraint=eastwest;strokeColor=inherit;" vertex="1" parent="ZP4OgEjjYW04ABh2yi0A-5">
          <mxGeometry y="214" width="348" height="8" as="geometry" />
        </mxCell>
        <mxCell id="ZP4OgEjjYW04ABh2yi0A-8" value="&lt;div style=&quot;line-height: 200%;&quot;&gt;+ Player(username: String)&lt;div&gt;&lt;div&gt;&lt;/div&gt;&lt;/div&gt;&lt;/div&gt;&lt;div style=&quot;line-height: 200%;&quot;&gt;+ getStats(gameType: String): GeneralStats&lt;/div&gt;&lt;div style=&quot;line-height: 200%;&quot;&gt;+ getUsername() : String&lt;/div&gt;&lt;div style=&quot;line-height: 200%;&quot;&gt;+ getEmail() : String&lt;/div&gt;&lt;div style=&quot;line-height: 200%;&quot;&gt;+ getPassword() : String&lt;/div&gt;&lt;div style=&quot;line-height: 200%;&quot;&gt;+ getRank() : Rank&lt;/div&gt;&lt;div style=&quot;line-height: 200%;&quot;&gt;+ updateUsername(oldUsername: String, newUsername: String)&lt;/div&gt;&lt;div style=&quot;line-height: 200%;&quot;&gt;+ updateEmail(username: String, email: String)&lt;/div&gt;&lt;div style=&quot;line-height: 200%;&quot;&gt;+ updatePassword(username: String, password: String)&lt;/div&gt;" style="text;strokeColor=none;fillColor=none;align=left;verticalAlign=top;spacingLeft=4;spacingRight=4;overflow=hidden;rotatable=0;points=[[0,0.5],[1,0.5]];portConstraint=eastwest;whiteSpace=wrap;html=1;spacingTop=0;spacingBottom=0;" vertex="1" parent="ZP4OgEjjYW04ABh2yi0A-5">
          <mxGeometry y="222" width="348" height="253" as="geometry" />
        </mxCell>
        <mxCell id="ZP4OgEjjYW04ABh2yi0A-9" style="edgeStyle=orthogonalEdgeStyle;rounded=0;orthogonalLoop=1;jettySize=auto;html=1;endArrow=open;endFill=0;" edge="1" parent="1">
          <mxGeometry relative="1" as="geometry">
            <Array as="points">
              <mxPoint x="682" y="-1235" />
              <mxPoint x="88" y="-1235" />
            </Array>
            <mxPoint x="682.0038095238092" y="-1299" as="sourcePoint" />
            <mxPoint x="88" y="-1099" as="targetPoint" />
          </mxGeometry>
        </mxCell>
        <mxCell id="ZP4OgEjjYW04ABh2yi0A-10" value="LoginPage" style="swimlane;fontStyle=1;align=center;verticalAlign=top;childLayout=stackLayout;horizontal=1;startSize=26;horizontalStack=0;resizeParent=1;resizeParentMax=0;resizeLast=0;collapsible=1;marginBottom=0;whiteSpace=wrap;html=1;" vertex="1" parent="1">
          <mxGeometry x="607" y="-1504" width="333" height="206" as="geometry" />
        </mxCell>
        <mxCell id="ZP4OgEjjYW04ABh2yi0A-11" value="&lt;div style=&quot;line-height: 200%;&quot;&gt;- database: CredentialsDatabase&lt;/div&gt;" style="text;strokeColor=none;fillColor=none;align=left;verticalAlign=top;spacingLeft=4;spacingRight=4;overflow=hidden;rotatable=0;points=[[0,0.5],[1,0.5]];portConstraint=eastwest;whiteSpace=wrap;html=1;" vertex="1" parent="ZP4OgEjjYW04ABh2yi0A-10">
          <mxGeometry y="26" width="333" height="26" as="geometry" />
        </mxCell>
        <mxCell id="ZP4OgEjjYW04ABh2yi0A-12" value="" style="line;strokeWidth=1;fillColor=none;align=left;verticalAlign=middle;spacingTop=-1;spacingLeft=3;spacingRight=3;rotatable=0;labelPosition=right;points=[];portConstraint=eastwest;strokeColor=inherit;" vertex="1" parent="ZP4OgEjjYW04ABh2yi0A-10">
          <mxGeometry y="52" width="333" height="8" as="geometry" />
        </mxCell>
        <mxCell id="ZP4OgEjjYW04ABh2yi0A-13" value="&lt;div style=&quot;line-height: 200%;&quot;&gt;+ LoginPage(database: CredentialsDatabase)&lt;br&gt;&lt;div&gt;&lt;div&gt;&lt;/div&gt;&lt;/div&gt;&lt;/div&gt;&lt;div style=&quot;line-height: 200%;&quot;&gt;+ login(username: String, password: String): HomePage&lt;/div&gt;&lt;div style=&quot;line-height: 200%;&quot;&gt;+ register(username: String, password: String, email: String): State&lt;/div&gt;&lt;div style=&quot;line-height: 200%;&quot;&gt;forgotPassword(username:String): boolean&lt;/div&gt;" style="text;strokeColor=none;fillColor=none;align=left;verticalAlign=top;spacingLeft=4;spacingRight=4;overflow=hidden;rotatable=0;points=[[0,0.5],[1,0.5]];portConstraint=eastwest;whiteSpace=wrap;html=1;spacingTop=0;spacingBottom=0;" vertex="1" parent="ZP4OgEjjYW04ABh2yi0A-10">
          <mxGeometry y="60" width="333" height="146" as="geometry" />
        </mxCell>
        <mxCell id="ZP4OgEjjYW04ABh2yi0A-14" value="HomePage" style="swimlane;fontStyle=1;align=center;verticalAlign=top;childLayout=stackLayout;horizontal=1;startSize=26;horizontalStack=0;resizeParent=1;resizeParentMax=0;resizeLast=0;collapsible=1;marginBottom=0;whiteSpace=wrap;html=1;" vertex="1" parent="1">
          <mxGeometry x="568" y="-1069" width="357" height="215" as="geometry" />
        </mxCell>
        <mxCell id="ZP4OgEjjYW04ABh2yi0A-15" value="- player: Player&lt;div&gt;- database: CredentialsDatabase&lt;/div&gt;&lt;div&gt;- accountSettings: Settings&lt;/div&gt;&lt;div&gt;&lt;br&gt;&lt;/div&gt;" style="text;strokeColor=none;fillColor=none;align=left;verticalAlign=top;spacingLeft=4;spacingRight=4;overflow=hidden;rotatable=0;points=[[0,0.5],[1,0.5]];portConstraint=eastwest;whiteSpace=wrap;html=1;" vertex="1" parent="ZP4OgEjjYW04ABh2yi0A-14">
          <mxGeometry y="26" width="357" height="64" as="geometry" />
        </mxCell>
        <mxCell id="ZP4OgEjjYW04ABh2yi0A-16" value="" style="line;strokeWidth=1;fillColor=none;align=left;verticalAlign=middle;spacingTop=-1;spacingLeft=3;spacingRight=3;rotatable=0;labelPosition=right;points=[];portConstraint=eastwest;strokeColor=inherit;" vertex="1" parent="ZP4OgEjjYW04ABh2yi0A-14">
          <mxGeometry y="90" width="357" height="8" as="geometry" />
        </mxCell>
        <mxCell id="ZP4OgEjjYW04ABh2yi0A-17" value="+ HomePage(player: Player, database: CredentialsDatabase&lt;div&gt;+ viewYourOwnRecords(): void&lt;/div&gt;&lt;div&gt;+ viewOtherPlayerRecords(otherPlayer: Player): void&lt;/div&gt;&lt;div&gt;+ viewSettings(): Settings&lt;/div&gt;&lt;div&gt;+ playConnect4(): void&lt;/div&gt;&lt;div&gt;+ playTicTacToe(): void&lt;/div&gt;&lt;div&gt;+ playCheckers(): void&lt;/div&gt;" style="text;strokeColor=none;fillColor=none;align=left;verticalAlign=top;spacingLeft=4;spacingRight=4;overflow=hidden;rotatable=0;points=[[0,0.5],[1,0.5]];portConstraint=eastwest;whiteSpace=wrap;html=1;" vertex="1" parent="ZP4OgEjjYW04ABh2yi0A-14">
          <mxGeometry y="98" width="357" height="117" as="geometry" />
        </mxCell>
        <mxCell id="ZP4OgEjjYW04ABh2yi0A-18" value="&lt;b&gt;&amp;lt;&amp;lt;enumeration&amp;gt;&amp;gt;&lt;/b&gt;&lt;div&gt;&lt;b&gt;State&lt;/b&gt;&lt;/div&gt;" style="swimlane;fontStyle=0;childLayout=stackLayout;horizontal=1;startSize=38;fillColor=none;horizontalStack=0;resizeParent=1;resizeParentMax=0;resizeLast=0;collapsible=1;marginBottom=0;whiteSpace=wrap;html=1;" vertex="1" parent="1">
          <mxGeometry x="245" y="-1471.5" width="140" height="141" as="geometry" />
        </mxCell>
        <mxCell id="ZP4OgEjjYW04ABh2yi0A-19" value="&lt;div style=&quot;line-height: 200%;&quot;&gt;UsernameTaken&lt;/div&gt;&lt;div style=&quot;line-height: 200%;&quot;&gt;E&lt;span style=&quot;background-color: transparent; color: light-dark(rgb(0, 0, 0), rgb(255, 255, 255));&quot;&gt;mailFormatWrong&lt;/span&gt;&lt;div&gt;VerificationCodeWrong&lt;/div&gt;&lt;div&gt;Success&lt;/div&gt;&lt;/div&gt;" style="text;strokeColor=none;fillColor=none;align=left;verticalAlign=top;spacingLeft=4;spacingRight=4;overflow=hidden;rotatable=0;points=[[0,0.5],[1,0.5]];portConstraint=eastwest;whiteSpace=wrap;html=1;" vertex="1" parent="ZP4OgEjjYW04ABh2yi0A-18">
          <mxGeometry y="38" width="140" height="103" as="geometry" />
        </mxCell>
        <mxCell id="ZP4OgEjjYW04ABh2yi0A-20" value="PlayerStats" style="swimlane;fontStyle=1;align=center;verticalAlign=top;childLayout=stackLayout;horizontal=1;startSize=26;horizontalStack=0;resizeParent=1;resizeParentMax=0;resizeLast=0;collapsible=1;marginBottom=0;whiteSpace=wrap;html=1;" vertex="1" parent="1">
          <mxGeometry x="719" y="-738" width="357" height="274" as="geometry" />
        </mxCell>
        <mxCell id="ZP4OgEjjYW04ABh2yi0A-21" value="- player: Player&lt;div&gt;&lt;br&gt;&lt;/div&gt;&lt;div&gt;&lt;br&gt;&lt;/div&gt;" style="text;strokeColor=none;fillColor=none;align=left;verticalAlign=top;spacingLeft=4;spacingRight=4;overflow=hidden;rotatable=0;points=[[0,0.5],[1,0.5]];portConstraint=eastwest;whiteSpace=wrap;html=1;" vertex="1" parent="ZP4OgEjjYW04ABh2yi0A-20">
          <mxGeometry y="26" width="357" height="35" as="geometry" />
        </mxCell>
        <mxCell id="ZP4OgEjjYW04ABh2yi0A-22" value="" style="line;strokeWidth=1;fillColor=none;align=left;verticalAlign=middle;spacingTop=-1;spacingLeft=3;spacingRight=3;rotatable=0;labelPosition=right;points=[];portConstraint=eastwest;strokeColor=inherit;" vertex="1" parent="ZP4OgEjjYW04ABh2yi0A-20">
          <mxGeometry y="61" width="357" height="8" as="geometry" />
        </mxCell>
        <mxCell id="ZP4OgEjjYW04ABh2yi0A-23" value="+ PlayerStats(player: Player)&lt;div&gt;+ getWinsForConnect4(): int&lt;/div&gt;&lt;div&gt;+ getLossesForConnect4(): int&lt;/div&gt;&lt;div&gt;+ getTiesForConnect4(): int&lt;/div&gt;&lt;div&gt;+ getRankForConnect4(): Rank&lt;/div&gt;&lt;div&gt;+ getWinsForTicTacToe(): int&lt;/div&gt;&lt;div&gt;+ getLossesForTicTacToe(): int&lt;/div&gt;&lt;div&gt;+ getTiesForTicTacToe(): int&lt;/div&gt;&lt;div&gt;+ getRankForTicTacToe(): Rank&lt;/div&gt;&lt;div&gt;+ getWinsForChecker(): int&lt;/div&gt;&lt;div&gt;+ getLossesForChecker(): int&lt;/div&gt;&lt;div&gt;+ getTiesForChecker(): int&lt;/div&gt;&lt;div&gt;+ getRankForChecker(): Rank&lt;/div&gt;" style="text;strokeColor=none;fillColor=none;align=left;verticalAlign=top;spacingLeft=4;spacingRight=4;overflow=hidden;rotatable=0;points=[[0,0.5],[1,0.5]];portConstraint=eastwest;whiteSpace=wrap;html=1;" vertex="1" parent="ZP4OgEjjYW04ABh2yi0A-20">
          <mxGeometry y="69" width="357" height="205" as="geometry" />
        </mxCell>
        <mxCell id="ZP4OgEjjYW04ABh2yi0A-24" value="Settings" style="swimlane;fontStyle=1;align=center;verticalAlign=top;childLayout=stackLayout;horizontal=1;startSize=26;horizontalStack=0;resizeParent=1;resizeParentMax=0;resizeLast=0;collapsible=1;marginBottom=0;whiteSpace=wrap;html=1;" vertex="1" parent="1">
          <mxGeometry x="265" y="-698" width="430" height="200" as="geometry" />
        </mxCell>
        <mxCell id="ZP4OgEjjYW04ABh2yi0A-25" value="- player: Player&lt;div&gt;- database: CredentialsDatabase&lt;/div&gt;&lt;div&gt;&lt;br&gt;&lt;/div&gt;" style="text;strokeColor=none;fillColor=none;align=left;verticalAlign=top;spacingLeft=4;spacingRight=4;overflow=hidden;rotatable=0;points=[[0,0.5],[1,0.5]];portConstraint=eastwest;whiteSpace=wrap;html=1;" vertex="1" parent="ZP4OgEjjYW04ABh2yi0A-24">
          <mxGeometry y="26" width="430" height="49" as="geometry" />
        </mxCell>
        <mxCell id="ZP4OgEjjYW04ABh2yi0A-26" value="" style="line;strokeWidth=1;fillColor=none;align=left;verticalAlign=middle;spacingTop=-1;spacingLeft=3;spacingRight=3;rotatable=0;labelPosition=right;points=[];portConstraint=eastwest;strokeColor=inherit;" vertex="1" parent="ZP4OgEjjYW04ABh2yi0A-24">
          <mxGeometry y="75" width="430" height="8" as="geometry" />
        </mxCell>
        <mxCell id="ZP4OgEjjYW04ABh2yi0A-27" value="+ Settings(player: Player, database: CredentialsDtabase)&lt;div&gt;+ deleteAccount(password: String): boolean&lt;/div&gt;&lt;div&gt;+ changeUsername(newUsername: String): boolean&lt;/div&gt;&lt;div&gt;+ changeEmail(newEmail: String): boolean&lt;/div&gt;&lt;div&gt;+ changePassword(oldPassword: String, newPassword: String): boolean&lt;/div&gt;&lt;div&gt;+ logout(): boolean&lt;/div&gt;" style="text;strokeColor=none;fillColor=none;align=left;verticalAlign=top;spacingLeft=4;spacingRight=4;overflow=hidden;rotatable=0;points=[[0,0.5],[1,0.5]];portConstraint=eastwest;whiteSpace=wrap;html=1;" vertex="1" parent="ZP4OgEjjYW04ABh2yi0A-24">
          <mxGeometry y="83" width="430" height="117" as="geometry" />
        </mxCell>
        <mxCell id="ZP4OgEjjYW04ABh2yi0A-28" value="" style="endArrow=open;endSize=16;endFill=0;html=1;rounded=0;exitX=0.363;exitY=1.001;exitDx=0;exitDy=0;exitPerimeter=0;entryX=0.5;entryY=1;entryDx=0;entryDy=0;" edge="1" parent="1">
          <mxGeometry width="160" relative="1" as="geometry">
            <mxPoint x="85.43899999999991" y="-812.0029999999999" as="sourcePoint" />
            <mxPoint x="1407.5600000000009" y="-349.23" as="targetPoint" />
            <Array as="points">
              <mxPoint x="86.56" y="-182.23" />
              <mxPoint x="1407.56" y="-177.23" />
            </Array>
          </mxGeometry>
        </mxCell>
        <mxCell id="ZP4OgEjjYW04ABh2yi0A-29" style="edgeStyle=orthogonalEdgeStyle;rounded=0;orthogonalLoop=1;jettySize=auto;html=1;startArrow=open;startFill=0;endArrow=diamondThin;endFill=1;" edge="1" parent="1">
          <mxGeometry relative="1" as="geometry">
            <mxPoint x="385" y="-1399" as="sourcePoint" />
            <mxPoint x="607" y="-1399" as="targetPoint" />
          </mxGeometry>
        </mxCell>
        <mxCell id="ZP4OgEjjYW04ABh2yi0A-30" value="" style="endArrow=open;endSize=16;endFill=0;html=1;rounded=0;entryX=0.002;entryY=0.118;entryDx=0;entryDy=0;exitX=-0.016;exitY=0.4;exitDx=0;exitDy=0;entryPerimeter=0;exitPerimeter=0;" edge="1" parent="1">
          <mxGeometry width="160" relative="1" as="geometry">
            <mxPoint x="567.288" y="-964.1999999999998" as="sourcePoint" />
            <mxPoint x="258.0039999999999" y="-966.0039999999999" as="targetPoint" />
          </mxGeometry>
        </mxCell>
        <mxCell id="ZP4OgEjjYW04ABh2yi0A-31" value="" style="endArrow=open;endSize=16;endFill=0;html=1;rounded=0;entryX=0.301;entryY=0.999;entryDx=0;entryDy=0;entryPerimeter=0;exitX=0.5;exitY=0;exitDx=0;exitDy=0;" edge="1" parent="1" source="ZP4OgEjjYW04ABh2yi0A-24" target="ZP4OgEjjYW04ABh2yi0A-17">
          <mxGeometry width="160" relative="1" as="geometry">
            <mxPoint x="490" y="-698" as="sourcePoint" />
            <mxPoint x="353.0039999999999" y="-859.0039999999999" as="targetPoint" />
          </mxGeometry>
        </mxCell>
        <mxCell id="ZP4OgEjjYW04ABh2yi0A-32" value="" style="endArrow=open;endSize=16;endFill=0;html=1;rounded=0;entryX=0.301;entryY=0.999;entryDx=0;entryDy=0;entryPerimeter=0;exitX=0.5;exitY=0;exitDx=0;exitDy=0;" edge="1" parent="1" source="ZP4OgEjjYW04ABh2yi0A-20">
          <mxGeometry width="160" relative="1" as="geometry">
            <mxPoint x="595" y="-698" as="sourcePoint" />
            <mxPoint x="780" y="-854" as="targetPoint" />
          </mxGeometry>
        </mxCell>
        <mxCell id="ZP4OgEjjYW04ABh2yi0A-33" value="" style="endArrow=open;endSize=16;endFill=0;html=1;rounded=0;" edge="1" parent="1">
          <mxGeometry width="160" relative="1" as="geometry">
            <mxPoint x="1076" y="-601.52" as="sourcePoint" />
            <mxPoint x="1194" y="-599" as="targetPoint" />
          </mxGeometry>
        </mxCell>
        <mxCell id="ZP4OgEjjYW04ABh2yi0A-34" value="" style="endArrow=open;endSize=16;endFill=0;html=1;rounded=0;exitX=0.363;exitY=1.001;exitDx=0;exitDy=0;exitPerimeter=0;entryX=0;entryY=0.856;entryDx=0;entryDy=0;entryPerimeter=0;" edge="1" parent="1" target="ZP4OgEjjYW04ABh2yi0A-8">
          <mxGeometry width="160" relative="1" as="geometry">
            <mxPoint x="472" y="-496" as="sourcePoint" />
            <mxPoint x="1199" y="-386" as="targetPoint" />
            <Array as="points">
              <mxPoint x="473" y="-388" />
            </Array>
          </mxGeometry>
        </mxCell>
        <mxCell id="ZP4OgEjjYW04ABh2yi0A-35" value="" style="endArrow=open;endSize=16;endFill=0;html=1;rounded=0;exitX=0.25;exitY=0;exitDx=0;exitDy=0;" edge="1" parent="1" source="ZP4OgEjjYW04ABh2yi0A-24">
          <mxGeometry width="160" relative="1" as="geometry">
            <mxPoint x="24" y="-658" as="sourcePoint" />
            <mxPoint x="258" y="-814" as="targetPoint" />
          </mxGeometry>
        </mxCell>
        <mxCell id="ZP4OgEjjYW04ABh2yi0A-36" value="" style="endArrow=openThin;endSize=16;endFill=0;html=1;rounded=0;entryX=0;entryY=0;entryDx=0;entryDy=0;exitX=0.5;exitY=0;exitDx=0;exitDy=0;" edge="1" parent="1" target="ZP4OgEjjYW04ABh2yi0A-5">
          <mxGeometry width="160" relative="1" as="geometry">
            <mxPoint x="925" y="-971" as="sourcePoint" />
            <mxPoint x="1120" y="-1127" as="targetPoint" />
          </mxGeometry>
        </mxCell>
        <mxCell id="ZP4OgEjjYW04ABh2yi0A-37" value="" style="endArrow=openThin;endSize=16;endFill=0;html=1;rounded=0;exitX=1;exitY=0.5;exitDx=0;exitDy=0;entryX=0.618;entryY=-0.003;entryDx=0;entryDy=0;entryPerimeter=0;" edge="1" parent="1" source="ZP4OgEjjYW04ABh2yi0A-13" target="ZP4OgEjjYW04ABh2yi0A-5">
          <mxGeometry width="160" relative="1" as="geometry">
            <mxPoint x="1124" y="-1208" as="sourcePoint" />
            <mxPoint x="1440" y="-1223" as="targetPoint" />
            <Array as="points">
              <mxPoint x="1412" y="-1371" />
            </Array>
          </mxGeometry>
        </mxCell>
        <mxCell id="ZP4OgEjjYW04ABh2yi0A-38" value="" style="endArrow=openThin;endSize=16;endFill=0;html=1;rounded=0;exitX=0.5;exitY=0;exitDx=0;exitDy=0;" edge="1" parent="1">
          <mxGeometry width="160" relative="1" as="geometry">
            <mxPoint x="759" y="-1298" as="sourcePoint" />
            <mxPoint x="759" y="-1071" as="targetPoint" />
          </mxGeometry>
        </mxCell>
      </root>
    </mxGraphModel>
  </diagram>
</mxfile>
